<svg width="174" height="126" viewBox="0 0 174 126" fill="none" xmlns="http://www.w3.org/2000/svg">
<path fill-rule="evenodd" clip-rule="evenodd" d="M73.5501 32.6437C71.6193 31.4852 69.2146 31.4549 67.2552 32.5643C65.2957 33.6737 64.0845 35.7513 64.0845 38.003V88.003C64.0845 90.2547 65.2957 92.3324 67.2552 93.4418C69.2146 94.5512 71.6193 94.5208 73.5501 93.3623L115.217 68.3624C117.099 67.2328 118.251 65.1984 118.251 63.003C118.251 60.8076 117.099 58.7732 115.217 57.6437L73.5501 32.6437ZM99.8534 63.003L76.5845 76.9643V49.0417L99.8534 63.003Z" fill="#392644"/>
<path fill-rule="evenodd" clip-rule="evenodd" d="M128.924 1.68036C101.018 -0.502828 72.9848 -0.502829 45.0794 1.68036L26.4069 3.14121C15.0521 4.02955 5.7631 12.5396 3.88613 23.7733C-0.453578 49.7464 -0.453578 76.2596 3.88613 102.233C5.7631 113.466 15.0521 121.976 26.4069 122.865L45.0794 124.326C72.9848 126.509 101.018 126.509 128.923 124.326L147.596 122.865C158.951 121.976 168.24 113.466 170.117 102.233C174.456 76.2596 174.456 49.7464 170.117 23.7733C168.24 12.5396 158.951 4.02955 147.596 3.14121L128.924 1.68036ZM46.0543 14.1423C73.3108 12.0099 100.692 12.0099 127.949 14.1423L146.621 15.6031C152.251 16.0436 156.857 20.2632 157.788 25.8333C161.899 50.4425 161.899 75.5635 157.788 100.173C156.857 105.743 152.251 109.962 146.621 110.403L127.949 111.864C100.692 113.996 73.3107 113.996 46.0543 111.864L27.3818 110.403C21.7517 109.962 17.1459 105.743 16.2152 100.173C12.1034 75.5635 12.1034 50.4425 16.2152 25.8333C17.1459 20.2632 21.7517 16.0436 27.3818 15.6031L46.0543 14.1423Z" fill="#392644"/>
</svg>
